# Blender v3.1.2 OBJ File: ''
# www.blender.org
mtllib sphere_and_cube.mtl
o Cube_Cube.001
v 20.756287 -15.994142 8.806159
v 20.756287 -16.318565 8.589387
v 20.756287 -17.083931 8.589387
v 20.756287 -17.625128 9.130583
v 20.902733 -15.777369 9.159713
v 21.026884 -15.994142 8.859984
v 21.109840 -16.318565 8.659713
v 21.138969 -16.701248 8.589387
v 21.109840 -17.083931 8.659713
v 21.026884 -17.408356 8.859984
v 20.902733 -17.625128 9.159713
v 21.026884 -15.777369 9.242668
v 21.256287 -15.994142 9.013267
v 21.409569 -16.318565 8.859984
v 21.463394 -16.701248 8.806159
v 21.409569 -17.083931 8.859984
v 21.256287 -17.408356 9.013267
v 21.026884 -17.625128 9.242668
v 21.109840 -15.777369 9.366819
v 21.409569 -15.994142 9.242668
v 21.609840 -16.318565 9.159713
v 21.680166 -16.701248 9.130583
v 21.609840 -17.083931 9.159713
v 21.409569 -17.408356 9.242668
v 21.109840 -17.625128 9.366819
v 21.138969 -15.777369 9.513267
v 21.463394 -15.994142 9.513267
v 21.680166 -16.318565 9.513267
v 21.756287 -16.701248 9.513267
v 21.680166 -17.083931 9.513267
v 21.463394 -17.408356 9.513267
v 21.138969 -17.625128 9.513267
v 21.109840 -15.777369 9.659713
v 21.409569 -15.994142 9.783864
v 21.609840 -16.318565 9.866820
v 21.680166 -16.701248 9.895949
v 21.609840 -17.083931 9.866820
v 21.409569 -17.408356 9.783864
v 21.109840 -17.625128 9.659713
v 21.026884 -15.777369 9.783864
v 21.256287 -15.994142 10.013267
v 21.409569 -16.318565 10.166548
v 21.463394 -16.701248 10.220373
v 21.409569 -17.083931 10.166548
v 21.256287 -17.408356 10.013267
v 21.026884 -17.625128 9.783864
v 20.902733 -15.777369 9.866820
v 21.026884 -15.994142 10.166548
v 21.109840 -16.318565 10.366820
v 21.138969 -16.701248 10.437146
v 21.109840 -17.083931 10.366820
v 21.026884 -17.408356 10.166548
v 20.902733 -17.625128 9.866819
v 20.756287 -15.701248 9.513267
v 20.756287 -15.777369 9.895949
v 20.756287 -15.994142 10.220373
v 20.756287 -16.318565 10.437146
v 20.756287 -16.701248 10.513267
v 20.756287 -17.083931 10.437146
v 20.756287 -17.408356 10.220373
v 20.756287 -17.625128 9.895949
v 20.609840 -15.777369 9.866819
v 20.485689 -15.994142 10.166548
v 20.402733 -16.318565 10.366819
v 20.373604 -16.701248 10.437146
v 20.402733 -17.083931 10.366819
v 20.485689 -17.408356 10.166548
v 20.609840 -17.625128 9.866819
v 20.485689 -15.777369 9.783864
v 20.256287 -15.994142 10.013267
v 20.103004 -16.318565 10.166547
v 20.049179 -16.701248 10.220372
v 20.103004 -17.083931 10.166547
v 20.256287 -17.408356 10.013267
v 20.485689 -17.625128 9.783864
v 20.756287 -17.701248 9.513267
v 20.402733 -15.777369 9.659713
v 20.103004 -15.994142 9.783864
v 19.902733 -16.318565 9.866819
v 19.832407 -16.701248 9.895949
v 19.902733 -17.083931 9.866819
v 20.103004 -17.408356 9.783864
v 20.402733 -17.625128 9.659713
v 20.373604 -15.777369 9.513267
v 20.049179 -15.994142 9.513267
v 19.832407 -16.318565 9.513266
v 19.756287 -16.701248 9.513266
v 19.832407 -17.083931 9.513266
v 20.049179 -17.408356 9.513267
v 20.373604 -17.625128 9.513267
v 20.402733 -15.777369 9.366819
v 20.103004 -15.994142 9.242668
v 19.902733 -16.318565 9.159713
v 19.832407 -16.701248 9.130582
v 19.902733 -17.083931 9.159713
v 20.103004 -17.408356 9.242668
v 20.402733 -17.625128 9.366819
v 20.485689 -15.777369 9.242668
v 20.256287 -15.994142 9.013267
v 20.103006 -16.318565 8.859984
v 20.049181 -16.701248 8.806159
v 20.103006 -17.083931 8.859984
v 20.256287 -17.408356 9.013267
v 20.485689 -17.625128 9.242668
v 20.609840 -15.777369 9.159713
v 20.485689 -15.994142 8.859984
v 20.402733 -16.318565 8.659713
v 20.373604 -16.701248 8.589387
v 20.402733 -17.083931 8.659713
v 20.485689 -17.408356 8.859984
v 20.609840 -17.625128 9.159713
v 20.756287 -15.777369 9.130583
v 20.756287 -16.701248 8.513267
v 20.756287 -17.408356 8.806159
v 21.836939 -15.552088 10.490241
v 21.836939 -17.552088 8.490241
v 21.836939 -17.552088 10.490241
v 21.836939 -15.552087 8.490241
v 23.836939 -17.552088 8.490241
v 23.836939 -15.552087 8.490241
v 23.836939 -17.552088 10.490241
v 23.836939 -15.552088 10.490241
vt 0.750000 0.750000
vt 0.687500 0.625000
vt 0.750000 0.625000
vt 0.750000 0.875000
vt 0.718750 1.000000
vt 0.687500 0.875000
vt 0.718750 0.000000
vt 0.750000 0.125000
vt 0.687500 0.125000
vt 0.750000 0.250000
vt 0.687500 0.375000
vt 0.687500 0.250000
vt 0.750000 0.500000
vt 0.687500 0.500000
vt 0.687500 0.750000
vt 0.750000 0.375000
vt 0.625000 0.250000
vt 0.625000 0.500000
vt 0.625000 0.750000
vt 0.625000 0.125000
vt 0.625000 0.375000
vt 0.625000 0.625000
vt 0.656250 1.000000
vt 0.625000 0.875000
vt 0.656250 0.000000
vt 0.562500 0.125000
vt 0.562500 0.375000
vt 0.562500 0.625000
vt 0.593750 1.000000
vt 0.562500 0.875000
vt 0.593750 0.000000
vt 0.562500 0.250000
vt 0.562500 0.500000
vt 0.562500 0.750000
vt 0.500000 0.375000
vt 0.500000 0.625000
vt 0.531250 1.000000
vt 0.500000 0.875000
vt 0.531250 0.000000
vt 0.500000 0.125000
vt 0.500000 0.250000
vt 0.500000 0.500000
vt 0.500000 0.750000
vt 0.468750 0.000000
vt 0.437500 0.125000
vt 0.437500 0.250000
vt 0.437500 0.500000
vt 0.437500 0.750000
vt 0.437500 0.375000
vt 0.437500 0.625000
vt 0.468750 1.000000
vt 0.437500 0.875000
vt 0.375000 0.500000
vt 0.375000 0.750000
vt 0.375000 0.125000
vt 0.375000 0.375000
vt 0.375000 0.625000
vt 0.406250 1.000000
vt 0.375000 0.875000
vt 0.406250 0.000000
vt 0.375000 0.250000
vt 0.312500 0.250000
vt 0.312500 0.125000
vt 0.312500 0.500000
vt 0.312500 0.375000
vt 0.312500 0.750000
vt 0.312500 0.625000
vt 0.343750 1.000000
vt 0.312500 0.875000
vt 0.343750 0.000000
vt 0.250000 0.625000
vt 0.281250 1.000000
vt 0.250000 0.875000
vt 0.281250 0.000000
vt 0.250000 0.125000
vt 0.250000 0.250000
vt 0.250000 0.500000
vt 0.250000 0.750000
vt 0.250000 0.375000
vt 0.218750 0.000000
vt 0.187500 0.125000
vt 0.187500 0.250000
vt 0.187500 0.625000
vt 0.187500 0.500000
vt 0.187500 0.750000
vt 0.187500 0.375000
vt 0.218750 1.000000
vt 0.187500 0.875000
vt 0.125000 0.750000
vt 0.125000 0.250000
vt 0.125000 0.125000
vt 0.125000 0.375000
vt 0.125000 0.625000
vt 0.156250 1.000000
vt 0.125000 0.875000
vt 0.156250 0.000000
vt 0.125000 0.500000
vt 0.062500 0.250000
vt 0.062500 0.125000
vt 0.062500 0.375000
vt 0.062500 0.625000
vt 0.093750 1.000000
vt 0.062500 0.875000
vt 0.093750 0.000000
vt 0.062500 0.500000
vt 0.062500 0.750000
vt 0.031250 1.000000
vt 0.000000 0.875000
vt 0.031250 0.000000
vt 0.000000 0.125000
vt 0.000000 0.250000
vt 0.000000 0.625000
vt 0.000000 0.500000
vt 0.000000 0.750000
vt 0.000000 0.375000
vt 1.000000 0.375000
vt 0.937500 0.250000
vt 1.000000 0.250000
vt 1.000000 0.500000
vt 0.937500 0.625000
vt 0.937500 0.500000
vt 1.000000 0.875000
vt 0.937500 0.750000
vt 1.000000 0.750000
vt 0.937500 0.125000
vt 1.000000 0.125000
vt 0.937500 0.375000
vt 1.000000 0.625000
vt 0.968750 1.000000
vt 0.937500 0.875000
vt 0.968750 0.000000
vt 0.875000 0.125000
vt 0.875000 0.375000
vt 0.875000 0.750000
vt 0.875000 0.625000
vt 0.906250 1.000000
vt 0.875000 0.875000
vt 0.906250 0.000000
vt 0.875000 0.250000
vt 0.875000 0.500000
vt 0.812500 0.375000
vt 0.812500 0.750000
vt 0.812500 0.625000
vt 0.843750 1.000000
vt 0.812500 0.875000
vt 0.843750 0.000000
vt 0.812500 0.125000
vt 0.812500 0.250000
vt 0.812500 0.500000
vt 0.781250 0.000000
vt 0.781250 1.000000
vt 0.625000 0.000000
vt 0.375000 0.250000
vt 0.375000 0.000000
vt 0.625000 0.250000
vt 0.375000 0.500000
vt 0.625000 0.500000
vt 0.375000 0.750000
vt 0.625000 0.750000
vt 0.375000 1.000000
vt 0.125000 0.750000
vt 0.125000 0.500000
vt 0.875000 0.500000
vt 0.625000 1.000000
vt 0.875000 0.750000
vn 0.1632 0.5481 -0.8203
vn 0.0388 0.9800 -0.1949
vn 0.0388 -0.9800 -0.1950
vn 0.1632 -0.5481 -0.8203
vn 0.1915 0.1915 -0.9626
vn 0.1098 0.8264 -0.5522
vn 0.1098 -0.8264 -0.5522
vn 0.1915 -0.1915 -0.9626
vn 0.4647 -0.5481 -0.6954
vn 0.5453 0.1915 -0.8161
vn 0.3128 0.8264 -0.4681
vn 0.3128 -0.8264 -0.4681
vn 0.5453 -0.1915 -0.8161
vn 0.4647 0.5481 -0.6954
vn 0.1104 0.9800 -0.1653
vn 0.1104 -0.9800 -0.1653
vn 0.4681 -0.8264 -0.3128
vn 0.8161 -0.1915 -0.5453
vn 0.6954 0.5481 -0.4647
vn 0.1653 0.9800 -0.1104
vn 0.1653 -0.9800 -0.1104
vn 0.6954 -0.5481 -0.4647
vn 0.8161 0.1915 -0.5453
vn 0.4681 0.8264 -0.3128
vn 0.9626 -0.1915 -0.1915
vn 0.8203 0.5481 -0.1632
vn 0.1949 0.9800 -0.0388
vn 0.1949 -0.9800 -0.0388
vn 0.8203 -0.5481 -0.1632
vn 0.9626 0.1915 -0.1915
vn 0.5522 0.8264 -0.1098
vn 0.5522 -0.8264 -0.1098
vn 0.1949 -0.9800 0.0388
vn 0.8203 -0.5481 0.1632
vn 0.9626 0.1915 0.1915
vn 0.5522 0.8264 0.1098
vn 0.5522 -0.8264 0.1098
vn 0.9626 -0.1915 0.1915
vn 0.8203 0.5481 0.1632
vn 0.1949 0.9800 0.0388
vn 0.8161 0.1915 0.5453
vn 0.4681 0.8264 0.3128
vn 0.4681 -0.8264 0.3128
vn 0.8161 -0.1915 0.5453
vn 0.6954 0.5481 0.4647
vn 0.1653 0.9800 0.1104
vn 0.1653 -0.9800 0.1104
vn 0.6954 -0.5481 0.4647
vn 0.3128 -0.8264 0.4681
vn 0.5453 -0.1915 0.8161
vn 0.4647 0.5481 0.6954
vn 0.1104 0.9800 0.1653
vn 0.1104 -0.9800 0.1653
vn 0.4647 -0.5481 0.6954
vn 0.5453 0.1915 0.8161
vn 0.3128 0.8264 0.4681
vn 0.1632 0.5481 0.8203
vn 0.0388 0.9800 0.1949
vn 0.0388 -0.9800 0.1950
vn 0.1632 -0.5481 0.8203
vn 0.1915 0.1915 0.9626
vn 0.1098 0.8264 0.5522
vn 0.1098 -0.8264 0.5522
vn 0.1915 -0.1915 0.9626
vn -0.0388 -0.9800 0.1950
vn -0.1632 -0.5481 0.8203
vn -0.1915 0.1915 0.9626
vn -0.1098 0.8264 0.5522
vn -0.1098 -0.8264 0.5522
vn -0.1915 -0.1915 0.9626
vn -0.1632 0.5481 0.8203
vn -0.0388 0.9800 0.1949
vn -0.3128 0.8264 0.4681
vn -0.3128 -0.8264 0.4681
vn -0.5453 -0.1915 0.8161
vn -0.4647 0.5481 0.6954
vn -0.1104 0.9800 0.1653
vn -0.1104 -0.9800 0.1653
vn -0.4647 -0.5481 0.6954
vn -0.5453 0.1915 0.8161
vn -0.4681 -0.8264 0.3128
vn -0.8161 -0.1915 0.5453
vn -0.6954 0.5481 0.4647
vn -0.1653 0.9800 0.1104
vn -0.1653 -0.9800 0.1104
vn -0.6954 -0.5481 0.4647
vn -0.8161 0.1915 0.5453
vn -0.4681 0.8264 0.3128
vn -0.1949 0.9800 0.0388
vn -0.1949 -0.9800 0.0388
vn -0.8203 -0.5481 0.1632
vn -0.9626 0.1915 0.1915
vn -0.5522 0.8264 0.1098
vn -0.5522 -0.8264 0.1098
vn -0.9626 -0.1915 0.1915
vn -0.8203 0.5481 0.1632
vn -0.8203 -0.5481 -0.1632
vn -0.9626 0.1915 -0.1915
vn -0.5522 0.8264 -0.1098
vn -0.5522 -0.8264 -0.1098
vn -0.9626 -0.1915 -0.1915
vn -0.8203 0.5481 -0.1632
vn -0.1949 0.9800 -0.0388
vn -0.1949 -0.9800 -0.0388
vn -0.4681 -0.8264 -0.3128
vn -0.8161 -0.1915 -0.5453
vn -0.6954 0.5481 -0.4647
vn -0.1653 0.9800 -0.1104
vn -0.1653 -0.9800 -0.1104
vn -0.6954 -0.5481 -0.4647
vn -0.8161 0.1915 -0.5453
vn -0.4681 0.8264 -0.3128
vn -0.5453 -0.1915 -0.8161
vn -0.4647 0.5481 -0.6954
vn -0.1104 0.9800 -0.1653
vn -0.1104 -0.9800 -0.1653
vn -0.4647 -0.5481 -0.6954
vn -0.5453 0.1915 -0.8161
vn -0.3128 0.8264 -0.4681
vn -0.3128 -0.8264 -0.4681
vn -0.0388 -0.9800 -0.1950
vn -0.1632 -0.5481 -0.8203
vn -0.1915 0.1915 -0.9626
vn -0.1098 0.8264 -0.5522
vn -0.1098 -0.8264 -0.5522
vn -0.1915 -0.1915 -0.9626
vn -0.1632 0.5481 -0.8203
vn -0.0388 0.9800 -0.1949
vn -0.5774 0.5774 0.5774
vn -0.5774 -0.5774 -0.5774
vn -0.5774 -0.5774 0.5774
vn -0.5774 0.5774 -0.5774
vn 0.5774 -0.5774 -0.5774
vn 0.5774 0.5774 -0.5773
vn 0.5774 -0.5774 0.5774
vn 0.5774 0.5774 0.5774
usemtl None
s off
f 1/1/1 7/2/1 2/3/1
f 112/4/2 54/5/2 5/6/2
f 76/7/3 4/8/3 11/9/3
f 114/10/4 9/11/4 10/12/4
f 113/13/5 7/2/5 8/14/5
f 112/4/6 6/15/6 1/1/6
f 114/10/7 11/9/7 4/8/7
f 113/13/8 9/11/8 3/16/8
f 9/11/9 17/17/9 10/12/9
f 7/2/10 15/18/10 8/14/10
f 5/6/11 13/19/11 6/15/11
f 10/12/12 18/20/12 11/9/12
f 8/14/13 16/21/13 9/11/13
f 6/15/14 14/22/14 7/2/14
f 5/6/15 54/23/15 12/24/15
f 76/25/16 11/9/16 18/20/16
f 17/17/17 25/26/17 18/20/17
f 15/18/18 23/27/18 16/21/18
f 13/19/19 21/28/19 14/22/19
f 12/24/20 54/29/20 19/30/20
f 76/31/21 18/20/21 25/26/21
f 16/21/22 24/32/22 17/17/22
f 14/22/23 22/33/23 15/18/23
f 12/24/24 20/34/24 13/19/24
f 22/33/25 30/35/25 23/27/25
f 20/34/26 28/36/26 21/28/26
f 19/30/27 54/37/27 26/38/27
f 76/39/28 25/26/28 32/40/28
f 23/27/29 31/41/29 24/32/29
f 22/33/30 28/36/30 29/42/30
f 20/34/31 26/38/31 27/43/31
f 24/32/32 32/40/32 25/26/32
f 76/44/33 32/40/33 39/45/33
f 30/35/34 38/46/34 31/41/34
f 28/36/35 36/47/35 29/42/35
f 26/38/36 34/48/36 27/43/36
f 32/40/37 38/46/37 39/45/37
f 29/42/38 37/49/38 30/35/38
f 28/36/39 34/48/39 35/50/39
f 26/38/40 54/51/40 33/52/40
f 35/50/41 43/53/41 36/47/41
f 33/52/42 41/54/42 34/48/42
f 38/46/43 46/55/43 39/45/43
f 36/47/44 44/56/44 37/49/44
f 35/50/45 41/54/45 42/57/45
f 33/52/46 54/58/46 40/59/46
f 76/60/47 39/45/47 46/55/47
f 37/49/48 45/61/48 38/46/48
f 46/55/49 52/62/49 53/63/49
f 44/56/50 50/64/50 51/65/50
f 42/57/51 48/66/51 49/67/51
f 40/59/52 54/68/52 47/69/52
f 76/70/53 46/55/53 53/63/53
f 44/56/54 52/62/54 45/61/54
f 42/57/55 50/64/55 43/53/55
f 40/59/56 48/66/56 41/54/56
f 48/66/57 57/71/57 49/67/57
f 47/69/58 54/72/58 55/73/58
f 76/74/59 53/63/59 61/75/59
f 51/65/60 60/76/60 52/62/60
f 49/67/61 58/77/61 50/64/61
f 47/69/62 56/78/62 48/66/62
f 53/63/63 60/76/63 61/75/63
f 50/64/64 59/79/64 51/65/64
f 76/80/65 61/75/65 68/81/65
f 59/79/66 67/82/66 60/76/66
f 58/77/67 64/83/67 65/84/67
f 55/73/68 63/85/68 56/78/68
f 60/76/69 68/81/69 61/75/69
f 59/79/70 65/84/70 66/86/70
f 56/78/71 64/83/71 57/71/71
f 55/73/72 54/87/72 62/88/72
f 62/88/73 70/89/73 63/85/73
f 68/81/74 74/90/74 75/91/74
f 65/84/75 73/92/75 66/86/75
f 63/85/76 71/93/76 64/83/76
f 62/88/77 54/94/77 69/95/77
f 76/96/78 68/81/78 75/91/78
f 66/86/79 74/90/79 67/82/79
f 64/83/80 72/97/80 65/84/80
f 75/91/81 82/98/81 83/99/81
f 72/97/82 81/100/82 73/92/82
f 70/89/83 79/101/83 71/93/83
f 69/95/84 54/102/84 77/103/84
f 76/104/85 75/91/85 83/99/85
f 73/92/86 82/98/86 74/90/86
f 71/93/87 80/105/87 72/97/87
f 69/95/88 78/106/88 70/89/88
f 77/103/89 54/107/89 84/108/89
f 76/109/90 83/99/90 90/110/90
f 81/100/91 89/111/91 82/98/91
f 80/105/92 86/112/92 87/113/92
f 77/103/93 85/114/93 78/106/93
f 82/98/94 90/110/94 83/99/94
f 80/105/95 88/115/95 81/100/95
f 79/101/96 85/114/96 86/112/96
f 88/116/97 96/117/97 89/118/97
f 87/119/98 93/120/98 94/121/98
f 84/122/99 92/123/99 85/124/99
f 89/118/100 97/125/100 90/126/100
f 87/119/101 95/127/101 88/116/101
f 86/128/102 92/123/102 93/120/102
f 84/122/103 54/129/103 91/130/103
f 76/131/104 90/126/104 97/125/104
f 96/117/105 104/132/105 97/125/105
f 94/121/106 102/133/106 95/127/106
f 93/120/107 99/134/107 100/135/107
f 91/130/108 54/136/108 98/137/108
f 76/138/109 97/125/109 104/132/109
f 95/127/110 103/139/110 96/117/110
f 94/121/111 100/135/111 101/140/111
f 91/130/112 99/134/112 92/123/112
f 101/140/113 109/141/113 102/133/113
f 100/135/114 106/142/114 107/143/114
f 98/137/115 54/144/115 105/145/115
f 76/146/116 104/132/116 111/147/116
f 102/133/117 110/148/117 103/139/117
f 101/140/118 107/143/118 108/149/118
f 98/137/119 106/142/119 99/134/119
f 103/139/120 111/147/120 104/132/120
f 76/150/121 111/147/121 4/8/121
f 109/141/122 114/10/122 110/148/122
f 108/149/123 2/3/123 113/13/123
f 105/145/124 1/1/124 106/142/124
f 110/148/125 4/8/125 111/147/125
f 108/149/126 3/16/126 109/141/126
f 107/143/127 1/1/127 2/3/127
f 105/145/128 54/151/128 112/4/128
f 1/1/1 6/15/1 7/2/1
f 114/10/4 3/16/4 9/11/4
f 113/13/5 2/3/5 7/2/5
f 112/4/6 5/6/6 6/15/6
f 114/10/7 10/12/7 11/9/7
f 113/13/8 8/14/8 9/11/8
f 9/11/9 16/21/9 17/17/9
f 7/2/10 14/22/10 15/18/10
f 5/6/11 12/24/11 13/19/11
f 10/12/12 17/17/12 18/20/12
f 8/14/13 15/18/13 16/21/13
f 6/15/14 13/19/14 14/22/14
f 17/17/17 24/32/17 25/26/17
f 15/18/18 22/33/18 23/27/18
f 13/19/19 20/34/19 21/28/19
f 16/21/22 23/27/22 24/32/22
f 14/22/23 21/28/23 22/33/23
f 12/24/24 19/30/24 20/34/24
f 22/33/25 29/42/25 30/35/25
f 20/34/26 27/43/26 28/36/26
f 23/27/29 30/35/29 31/41/29
f 22/33/30 21/28/30 28/36/30
f 20/34/31 19/30/31 26/38/31
f 24/32/32 31/41/32 32/40/32
f 30/35/34 37/49/34 38/46/34
f 28/36/35 35/50/35 36/47/35
f 26/38/36 33/52/36 34/48/36
f 32/40/37 31/41/37 38/46/37
f 29/42/38 36/47/38 37/49/38
f 28/36/39 27/43/39 34/48/39
f 35/50/41 42/57/41 43/53/41
f 33/52/42 40/59/42 41/54/42
f 38/46/43 45/61/43 46/55/43
f 36/47/44 43/53/44 44/56/44
f 35/50/45 34/48/45 41/54/45
f 37/49/48 44/56/48 45/61/48
f 46/55/49 45/61/49 52/62/49
f 44/56/50 43/53/50 50/64/50
f 42/57/51 41/54/51 48/66/51
f 44/56/54 51/65/54 52/62/54
f 42/57/55 49/67/55 50/64/55
f 40/59/56 47/69/56 48/66/56
f 48/66/57 56/78/57 57/71/57
f 51/65/60 59/79/60 60/76/60
f 49/67/61 57/71/61 58/77/61
f 47/69/62 55/73/62 56/78/62
f 53/63/63 52/62/63 60/76/63
f 50/64/64 58/77/64 59/79/64
f 59/79/66 66/86/66 67/82/66
f 58/77/67 57/71/67 64/83/67
f 55/73/68 62/88/68 63/85/68
f 60/76/69 67/82/69 68/81/69
f 59/79/70 58/77/70 65/84/70
f 56/78/71 63/85/71 64/83/71
f 62/88/73 69/95/73 70/89/73
f 68/81/74 67/82/74 74/90/74
f 65/84/75 72/97/75 73/92/75
f 63/85/76 70/89/76 71/93/76
f 66/86/79 73/92/79 74/90/79
f 64/83/80 71/93/80 72/97/80
f 75/91/81 74/90/81 82/98/81
f 72/97/82 80/105/82 81/100/82
f 70/89/83 78/106/83 79/101/83
f 73/92/86 81/100/86 82/98/86
f 71/93/87 79/101/87 80/105/87
f 69/95/88 77/103/88 78/106/88
f 81/100/91 88/115/91 89/111/91
f 80/105/92 79/101/92 86/112/92
f 77/103/93 84/108/93 85/114/93
f 82/98/94 89/111/94 90/110/94
f 80/105/95 87/113/95 88/115/95
f 79/101/96 78/106/96 85/114/96
f 88/116/97 95/127/97 96/117/97
f 87/119/98 86/128/98 93/120/98
f 84/122/99 91/130/99 92/123/99
f 89/118/100 96/117/100 97/125/100
f 87/119/101 94/121/101 95/127/101
f 86/128/102 85/124/102 92/123/102
f 96/117/105 103/139/105 104/132/105
f 94/121/106 101/140/106 102/133/106
f 93/120/107 92/123/107 99/134/107
f 95/127/110 102/133/110 103/139/110
f 94/121/111 93/120/111 100/135/111
f 91/130/112 98/137/112 99/134/112
f 101/140/113 108/149/113 109/141/113
f 100/135/114 99/134/114 106/142/114
f 102/133/117 109/141/117 110/148/117
f 101/140/118 100/135/118 107/143/118
f 98/137/119 105/145/119 106/142/119
f 103/139/120 110/148/120 111/147/120
f 109/141/122 3/16/122 114/10/122
f 108/149/123 107/143/123 2/3/123
f 105/145/124 112/4/124 1/1/124
f 110/148/125 114/10/125 4/8/125
f 108/149/126 113/13/126 3/16/126
f 107/143/127 106/142/127 1/1/127
s 1
f 115/152/129 116/153/130 117/154/131
f 118/155/132 119/156/133 116/153/130
f 120/157/134 121/158/135 119/156/133
f 122/159/136 117/160/131 121/158/135
f 119/156/133 117/161/131 116/162/130
f 118/163/132 122/159/136 120/157/134
f 115/152/129 118/155/132 116/153/130
f 118/155/132 120/157/134 119/156/133
f 120/157/134 122/159/136 121/158/135
f 122/159/136 115/164/129 117/160/131
f 119/156/133 121/158/135 117/161/131
f 118/163/132 115/165/129 122/159/136
